HIERARCHY
ROOT Hips
{
	OFFSET 0.000000 0.000000 0.000000
	CHANNELS 6 Xposition Yposition Zposition Zrotation Yrotation Xrotation 
	JOINT LHipJoint
	{
		OFFSET 0.000000 0.000000 0.000000
		CHANNELS 3 Zrotation Yrotation Xrotation
		JOINT LeftUpLeg
		{
			OFFSET 1.363060 -1.794630 0.839290
			CHANNELS 3 Zrotation Yrotation Xrotation
			JOINT LeftLeg
			{
				OFFSET 2.448110 -6.726130 0.000000
				CHANNELS 3 Zrotation Yrotation Xrotation
				JOINT LeftFoot
				{
					OFFSET 2.562200 -7.039590 0.000000
					CHANNELS 3 Zrotation Yrotation Xrotation
					JOINT LeftToeBase
					{
						OFFSET 0.157640 -0.433110 2.322550
						CHANNELS 3 Zrotation Yrotation Xrotation
						End Site
						{
							OFFSET 0.000000 0.000000 0.000000
						}
					}
				}
			}
		}
	}
	JOINT RHipJoint
	{
		OFFSET 0.000000 0.000000 0.000000
		CHANNELS 3 Zrotation Yrotation Xrotation
		JOINT RightUpLeg
		{
			OFFSET -1.305520 -1.794630 0.839290
			CHANNELS 3 Zrotation Yrotation Xrotation
			JOINT RightLeg
			{
				OFFSET -2.542530 -6.985550 0.000000
				CHANNELS 3 Zrotation Yrotation Xrotation
				JOINT RightFoot
				{
					OFFSET -2.568260 -7.056230 0.000000
					CHANNELS 3 Zrotation Yrotation Xrotation
					JOINT RightToeBase
					{
						OFFSET -0.164730 -0.452590 2.363150
						CHANNELS 3 Zrotation Yrotation Xrotation
						End Site
						{
							OFFSET 0.000000 0.000000 0.000000
						}
					}
				}
			}
		}
	}
}
MOTION
Frames: 33
Frame Time: 0.008333
-3.730630 16.854444 0.661535 -165.978631 79.113866 -139.777300 -12.187627 0.657861 -2.061313 -5.855701 -3.747138 -15.487615 -0.743405 1.728983 36.233952 0.991920 5.359357 -5.222678 0.156700 -0.000001 -60.467200 6.439730 -0.047856 1.745277 6.808845 12.673703 -45.129697 2.926779 -0.570121 16.248189 0.647123 3.396607 4.726504 0.194300 0.000000 -41.239900
-3.618885 16.876250 0.672257 -167.479607 78.362945 -141.251226 -12.290393 0.655375 -2.127437 -5.653897 -3.350336 -16.414347 -0.614719 1.868239 37.928764 0.998551 5.450271 -3.826861 0.285100 0.000000 -59.982700 6.451605 -0.058119 1.610796 7.047288 12.238768 -44.799000 2.929231 -0.600008 16.772070 0.576083 3.136127 3.895616 0.110400 0.000001 -40.711500
-3.508512 16.897556 0.684431 -169.086543 77.557510 -142.841466 -12.382784 0.648328 -2.190890 -5.504106 -2.949712 -17.363684 -0.493215 2.000248 39.632852 1.024784 5.628934 -2.570452 0.404900 0.000001 -58.511301 6.479117 -0.061977 1.475466 7.230989 11.743452 -44.425834 2.920811 -0.624049 17.195752 0.496745 2.813872 3.213837 0.023700 -0.000000 -40.237700
-3.399345 16.918000 0.696931 -170.678608 76.703833 -144.422420 -12.468326 0.636175 -2.250521 -5.393006 -2.542911 -18.333401 -0.381439 2.125693 41.336378 1.070977 5.918700 -1.517174 0.519100 -0.000001 -56.012800 6.515065 -0.062077 1.343624 7.375453 11.208749 -44.027346 2.902992 -0.642151 17.538349 0.407627 2.419398 2.659353 -0.070100 0.000000 -39.809400
-3.291371 16.937392 0.708714 -172.158037 75.810668 -145.892780 -12.549712 0.617784 -2.307417 -5.306220 -2.124472 -19.319774 -0.280357 2.245728 43.023259 1.136627 6.337170 -0.696549 0.632600 -0.000000 -52.715499 6.552700 -0.060712 1.217517 7.499032 10.655707 -43.616348 2.878357 -0.654213 17.817988 0.307911 1.951279 2.199864 -0.172600 -0.000000 -39.427500
-3.184713 16.955777 0.718947 -173.460324 74.890139 -147.186603 -12.628719 0.592696 -2.362844 -5.231013 -1.687992 -20.320108 -0.191345 2.362066 44.684969 1.219748 6.886438 -0.142853 0.745200 0.000000 -48.651801 6.586527 -0.060132 1.099201 7.620095 10.102741 -43.201924 2.850262 -0.660089 18.050926 0.198044 1.418435 1.798318 -0.283000 0.000001 -39.093200
-3.079487 16.973335 0.727064 -174.551456 73.955731 -148.269071 -12.706534 0.560275 -2.418645 -5.156746 -1.227851 -21.330076 -0.114188 2.476163 46.308849 1.318215 7.559371 0.145706 0.855100 -0.000000 -44.107400 6.612309 -0.062325 0.989118 7.755283 9.564669 -42.788922 2.822222 -0.659907 18.250479 0.079525 0.837030 1.420095 -0.398300 0.000000 -38.811500
-2.975916 16.990343 0.732782 -175.426228 73.021758 -149.135847 -12.783656 0.519844 -2.476699 -5.077470 -0.742254 -22.342372 -0.046992 2.588810 47.877570 1.430367 8.342555 0.213937 0.961000 0.000001 -39.532300 6.627331 -0.068472 0.885768 7.917343 9.050927 -42.378248 2.797553 -0.654130 18.426159 -0.044956 0.229472 1.037170 -0.513201 -0.000000 -38.584200
-2.874170 17.007102 0.736116 -176.098902 72.101546 -149.803216 -12.859843 0.471595 -2.538233 -4.991040 -0.231357 -23.351054 0.010821 2.700856 49.384889 1.552775 9.205682 0.084888 1.055500 0.000001 -35.027400 6.630680 -0.079662 0.787795 8.114636 8.565424 -41.968868 2.778911 -0.643542 18.584177 -0.171922 -0.379908 0.632681 -0.621700 0.000000 -38.410400
-2.774413 17.023945 0.737341 -176.601123 71.207154 -150.305220 -12.934082 0.416026 -2.604235 -4.901584 0.299761 -24.346567 0.061657 2.812135 50.818400 1.682688 10.119757 -0.171577 1.137100 -0.000000 -31.001699 6.623410 -0.095781 0.691876 8.349098 8.105732 -41.557138 2.767907 -0.629496 18.728392 -0.297215 -0.965879 0.201083 -0.717600 -0.000000 -38.285500
-2.676723 17.041152 0.736916 -176.971630 70.348489 -150.682642 -13.004695 0.354424 -2.675446 -4.816862 0.844489 -25.321139 0.106579 2.922440 52.172768 1.815749 11.047196 -0.508906 1.203001 -0.000000 -27.560901 6.608124 -0.116206 0.594720 8.617793 7.664956 -41.140144 2.765108 -0.613643 18.860596 -0.416549 -1.506437 -0.251302 -0.796300 0.000000 -38.203500
-2.581094 17.058879 0.735419 -177.249056 69.531871 -150.977358 -13.069593 0.288756 -2.751920 -4.746304 1.395125 -26.266633 0.146646 3.031094 53.444532 1.946992 11.949611 -0.882449 1.252200 -0.000000 -24.763700 6.588639 -0.140224 0.493700 8.913745 7.234087 -40.713939 2.769902 -0.597774 18.980507 -0.526216 -1.986336 -0.708286 -0.856000 -0.000000 -38.159200
-2.487471 17.077247 0.733566 -177.485678 68.762359 -151.244752 -13.124666 0.222322 -2.833440 -4.709449 1.939869 -27.171725 0.182630 3.136356 54.628474 2.071663 12.794639 -1.253175 1.287000 -0.000000 -22.609800 6.571968 -0.165425 0.385080 9.220557 6.794906 -40.279142 2.780308 -0.585067 19.095693 -0.622074 -2.388944 -1.152010 -0.895300 -0.000000 -38.147000
-2.395741 17.096238 0.731490 -177.678225 68.040371 -151.478952 -13.172421 0.154853 -2.920185 -4.696311 2.477058 -28.041285 0.214633 3.239047 55.726827 2.183892 13.542969 -1.596221 1.308300 0.000000 -21.045200 6.556145 -0.193031 0.269440 9.541002 6.356610 -39.829912 2.795292 -0.574183 19.187657 -0.704864 -2.730298 -1.549516 -0.921700 -0.000000 -38.163500
-2.305711 17.115804 0.729955 -177.892279 67.367300 -151.749067 -13.205918 0.091577 -3.010413 -4.739513 2.988992 -28.859045 0.243132 3.335386 56.730836 2.280443 14.178437 -1.887561 1.321500 0.000000 -20.007600 6.552527 -0.218635 0.142536 9.845973 5.887925 -39.376477 2.811184 -0.570586 19.282082 -0.770555 -2.991923 -1.892080 -0.933900 -0.000000 -38.203900
-2.217256 17.135805 0.728997 -178.129238 66.740082 -152.055164 -13.226006 0.033264 -3.102780 -4.836391 3.470983 -29.626282 0.268056 3.424621 57.639402 2.357702 14.680074 -2.117242 1.329000 0.000000 -19.421900 6.561369 -0.242371 0.005690 10.130482 5.391686 -38.920778 2.826024 -0.574267 19.375017 -0.820817 -3.189977 -2.161165 -0.938400 -0.000000 -38.269700
-2.130166 17.156120 0.728685 -178.402097 66.156234 -152.407944 -13.232173 -0.018744 -3.195340 -4.989345 3.916120 -30.342417 0.289137 3.505347 58.449504 2.413679 15.037989 -2.282306 1.332900 -0.000000 -19.209300 6.584501 -0.263395 -0.140395 10.386211 4.865234 -38.469423 2.837747 -0.586236 19.473516 -0.857049 -3.334352 -2.351175 -0.938700 0.000000 -38.360600
-2.044319 17.176579 0.728824 -178.711840 65.612067 -152.805198 -13.225126 -0.064049 -3.286080 -5.197327 4.319615 -31.009734 0.305906 3.576582 59.158740 2.447964 15.251524 -2.389077 1.333500 0.000000 -19.286600 6.621815 -0.281157 -0.294398 10.607734 4.309382 -38.031288 2.845163 -0.606996 19.585732 -0.881234 -3.435122 -2.464693 -0.937500 0.000001 -38.478800
-1.959598 17.197043 0.729090 -179.052354 65.102846 -153.238539 -13.206218 -0.102928 -3.372526 -5.453275 4.679304 -31.631379 0.317839 3.637613 59.765905 2.461262 15.326267 -2.451943 1.329000 0.000000 -19.561600 6.671712 -0.296189 -0.453534 10.794798 3.730167 -37.612503 2.847689 -0.636272 19.717928 -0.896181 -3.504341 -2.510975 -0.936501 0.000000 -38.629100
-1.876016 17.217402 0.728935 -179.408590 64.623577 -153.689454 -13.177713 -0.136466 -3.452569 -5.749148 4.994271 -32.213349 0.324288 3.688355 60.270803 2.455842 15.276964 -2.491529 1.316800 0.000000 -19.938600 6.731116 -0.308964 -0.615428 10.949554 3.134825 -37.220595 2.845807 -0.673460 19.876767 -0.904264 -3.550136 -2.504771 -0.936000 -0.000000 -38.818900
-1.793486 17.237609 0.728041 -179.772959 64.171039 -154.146701 -13.141364 -0.165832 -3.524321 -6.074478 5.265375 -32.762093 0.324473 3.729095 60.674571 2.434972 15.124737 -2.531537 1.293600 -0.000001 -20.322400 6.797030 -0.320138 -0.777315 11.076813 2.532590 -36.860384 2.840104 -0.717480 20.066414 -0.907661 -3.579088 -2.462673 -0.935901 -0.000000 -39.057699
-1.712047 17.257654 0.725910 179.870594 63.739971 -154.592356 -13.099208 -0.192660 -3.586050 -6.418886 5.493636 -33.283298 0.317918 3.760139 60.978793 2.402875 14.896740 -2.596140 1.257300 0.000000 -20.628800 6.866106 -0.330683 -0.936923 11.181992 1.931584 -36.533971 2.831773 -0.767239 20.289737 -0.907869 -3.594592 -2.401229 -0.935100 0.000001 -39.355000
-1.631697 17.277565 0.722271 179.531289 63.326820 -155.015080 -13.052815 -0.218393 -3.636610 -6.772635 5.680601 -33.782650 0.304163 3.782132 61.185637 2.364204 14.623176 -2.705408 1.206900 0.000001 -20.797100 6.935400 -0.341265 -1.092398 11.271093 1.340097 -36.241375 2.821886 -0.821353 20.545933 -0.905812 -3.598420 -2.333105 -0.932900 0.000000 -39.720700
-1.552520 17.297370 0.716778 179.223477 62.925400 -155.399082 -13.003802 -0.244650 -3.674262 -7.125606 5.826275 -34.265870 0.283267 3.795486 61.297944 2.323660 14.334354 -2.873881 1.143200 0.000000 -20.795199 7.001967 -0.353165 -1.241217 11.350176 0.767297 -35.979376 2.811485 -0.877990 20.828085 -0.902393 -3.594273 -2.264412 -0.929600 -0.000000 -40.169700
-1.474475 17.317155 0.709547 178.937721 62.534777 -155.754921 -12.952123 -0.271605 -3.700660 -7.476881 5.931729 -34.728925 0.254894 3.800750 61.315252 2.285825 14.060884 -3.107918 1.068700 -0.000000 -20.627400 7.065800 -0.364688 -1.386393 11.417575 0.210062 -35.742158 2.800871 -0.937079 21.139083 -0.896496 -3.574290 -2.204241 -0.922900 -0.000000 -40.683000
-1.397578 17.336922 0.700443 178.687379 62.147065 -156.067945 -12.899086 -0.300698 -3.713334 -7.815678 5.994934 -35.178217 0.219821 3.798136 61.241095 2.254301 13.824966 -3.407223 0.986101 -0.000000 -20.315900 7.124367 -0.377751 -1.523997 11.479537 -0.319243 -35.521675 2.790232 -0.995801 21.459791 -0.889726 -3.549903 -2.143764 -0.915700 -0.000000 -41.279900
-1.321793 17.356703 0.689595 178.466310 61.758128 -156.345636 -12.844622 -0.332011 -3.712951 -8.140595 6.014537 -35.609938 0.178442 3.787743 61.074814 2.231979 13.644688 -3.764719 0.898300 0.000000 -19.903200 7.177852 -0.391420 -1.655447 11.533809 -0.820962 -35.308245 2.779145 -1.053159 21.781807 -0.882078 -3.522295 -2.079279 -0.908500 -0.000000 -41.943401
-1.247007 17.376447 0.677306 178.267102 61.362287 -156.597329 -12.788372 -0.365382 -3.699485 -8.450048 5.988273 -36.019904 0.131400 3.769338 60.815748 2.220515 13.529489 -4.169024 0.807900 -0.000000 -19.434100 7.226846 -0.405192 -1.781164 11.578152 -1.294684 -35.091237 2.766817 -1.107934 22.093729 -0.874181 -3.496576 -2.003826 -0.902700 0.000000 -42.655300
-1.173164 17.396075 0.663689 178.086531 60.954064 -156.827564 -12.730449 -0.400646 -3.673118 -8.742668 5.914438 -36.404628 0.079379 3.742836 60.463015 2.220475 13.481151 -4.606300 0.716800 -0.000000 -18.949200 7.271541 -0.418523 -1.901660 11.610003 -1.739557 -34.860525 2.752399 -1.158845 22.383979 -0.867215 -3.480804 -1.910172 -0.900100 0.000000 -43.395499
-1.100114 17.415448 0.649025 177.917061 60.528357 -157.045633 -12.670556 -0.437303 -3.634094 -9.017973 5.791927 -36.759432 0.022974 3.707964 60.014933 2.231236 13.493966 -5.061342 0.626200 0.000000 -18.478600 7.312631 -0.430817 -2.017332 11.626676 -2.155702 -34.606976 2.734983 -1.204791 22.642354 -0.862584 -3.483300 -1.793973 -0.902499 0.000000 -44.140100
-1.027760 17.434381 0.633412 177.754808 60.080518 -157.256094 -12.608748 -0.474881 -3.582771 -9.275726 5.620884 -37.081785 -0.037336 3.664679 59.470170 2.251222 13.556225 -5.519590 0.537500 0.000000 -18.040600 7.350373 -0.441573 -2.128464 11.626188 -2.542737 -34.323312 2.713899 -1.244738 22.860463 -0.861908 -3.512962 -1.653851 -0.911399 0.000000 -44.868500
-0.955895 17.452720 0.617085 177.593404 59.607322 -157.466100 -12.544766 -0.512761 -3.519506 -9.515832 5.403021 -37.369689 -0.101227 3.612915 58.827664 2.278082 13.652056 -5.967749 0.451600 -0.000000 -17.640400 7.385318 -0.450453 -2.235043 11.607581 -2.901017 -34.004589 2.688664 -1.277965 23.032913 -0.866753 -3.577374 -1.492650 -0.928000 0.000001 -45.562900
-0.884445 17.470280 0.599926 177.435593 59.105506 -157.673284 -12.478913 -0.550577 -3.444705 -9.738618 5.141756 -37.623359 -0.168380 3.552720 58.087058 2.308982 13.763072 -6.394474 0.369800 -0.000000 -17.272500 7.417340 -0.457563 -2.336847 11.571160 -3.230865 -33.648480 2.659476 -1.303976 23.156933 -0.878507 -3.682512 -1.317246 -0.952900 -0.000000 -46.213000
